<svg width="721" height="721" viewBox="0 0 721 721" fill="none" xmlns="http://www.w3.org/2000/svg">
<path d="M360.5 721C559.598 721 721 559.598 721 360.5C721 161.401 559.598 0 360.5 0C161.401 0 0 161.401 0 360.5C0 559.598 161.401 721 360.5 721Z" fill="#1048E5"/>
<path d="M157.979 348.705C187.928 331.696 190.79 307.374 194.669 285.596C196.99 272.465 197.848 267.347 197.848 267.347H251.037C251.037 267.347 248.526 281.304 246.173 294.466C242.294 316.245 242.994 332.109 213.935 348.705L172.382 372.295C142.433 389.273 139.571 413.626 135.693 435.404C133.372 448.535 132.513 453.654 132.513 453.654H79.3242L84.1888 426.534C88.0358 404.756 87.3673 388.891 116.426 372.295L157.979 348.705Z" fill="white"/>
<path d="M145.708 342.156H124.089C115.365 342.214 106.899 339.205 100.169 333.656C93.4403 328.106 88.875 320.368 87.2723 311.793L79.3242 267.283H132.387L145.708 342.156Z" fill="white"/>
<path d="M184.555 378.876H206.27C214.984 378.816 223.443 381.822 230.166 387.366C236.889 392.91 241.452 400.641 243.054 409.207L251.034 453.717H197.972L184.555 378.876Z" fill="white"/>
<path d="M333.794 427.552C325.126 427.486 316.529 425.971 308.361 423.069C299.623 420.052 291.595 415.281 284.77 409.048L304.291 385.585C308.872 389.245 313.918 392.281 319.297 394.614C324.081 396.807 329.264 397.997 334.526 398.111C338.429 398.41 342.335 397.582 345.78 395.727C346.894 394.993 347.797 393.984 348.404 392.796C349.011 391.61 349.302 390.286 349.246 388.955C349.309 387.536 348.894 386.136 348.069 384.981C347.102 383.773 345.915 382.759 344.573 381.992C342.817 380.959 340.99 380.056 339.104 379.289C336.974 378.431 334.526 377.478 331.728 376.428L315.609 369.656C312.101 368.285 308.762 366.513 305.658 364.379C302.514 362.218 299.707 359.604 297.328 356.621C294.874 353.55 292.95 350.09 291.637 346.384C290.201 342.3 289.491 337.996 289.539 333.667C289.512 328.255 290.742 322.912 293.131 318.056C295.541 313.179 298.928 308.851 303.083 305.34C307.587 301.548 312.749 298.617 318.311 296.691C324.542 294.51 331.105 293.434 337.705 293.513C345.416 293.569 353.056 294.978 360.278 297.677C367.958 300.512 374.924 304.994 380.69 310.807L363.585 332.3C359.634 329.487 355.365 327.15 350.867 325.337C346.649 323.715 342.161 322.907 337.641 322.953C334.186 322.768 330.747 323.526 327.69 325.146C326.551 325.807 325.614 326.766 324.981 327.92C324.348 329.075 324.042 330.38 324.098 331.696C324.146 333.25 324.655 334.753 325.56 336.016C326.467 337.279 327.728 338.243 329.185 338.785C332.555 340.439 337.26 342.378 343.205 344.635L359.102 350.803C366.442 353.451 372.91 358.071 377.796 364.157C382.403 370.564 384.722 378.336 384.377 386.221C384.368 391.716 383.179 397.145 380.893 402.142C378.605 407.138 375.273 411.585 371.12 415.184C366.441 419.182 361.047 422.256 355.223 424.245C348.325 426.577 341.075 427.695 333.794 427.552Z" fill="white"/>
<path d="M466.246 427.551C457.601 427.603 449.008 426.228 440.811 423.482C432.937 420.905 425.735 416.611 419.725 410.908C413.716 405.206 409.048 398.24 406.061 390.513C399.214 371.822 399.214 351.308 406.061 332.617C409.229 324.633 414 317.383 420.082 311.317C425.978 305.552 432.988 301.051 440.684 298.091C448.547 295.031 456.917 293.478 465.355 293.513C473.887 293.296 482.357 295.025 490.122 298.567C496.556 301.592 502.443 305.665 507.544 310.617L489.645 332.491C486.588 329.809 483.214 327.514 479.598 325.655C475.63 323.914 471.342 323.016 467.008 323.016C462.674 323.016 458.388 323.914 454.418 325.655C450.689 327.41 447.365 329.922 444.658 333.031C441.776 336.478 439.614 340.467 438.299 344.762C436.689 349.904 435.916 355.271 436.01 360.659C436.01 372.867 438.713 382.215 444.181 388.7C449.649 395.186 458.17 398.461 469.838 398.461C471.678 398.467 473.512 398.265 475.306 397.857C476.898 397.546 478.418 396.943 479.789 396.076V377.795H460.714V349.944H510.056V411.623C504.639 416.489 498.364 420.305 491.553 422.878C483.5 426.062 474.905 427.649 466.246 427.551Z" fill="white"/>
<path d="M537.012 425.166V295.833H575.163C584.276 295.727 593.356 296.937 602.123 299.426C609.871 301.594 617.039 305.46 623.107 310.744C629.153 316.215 633.826 323.033 636.746 330.646C640.208 340 641.858 349.925 641.611 359.895C641.845 369.919 640.229 379.899 636.842 389.336C634 397.054 629.408 404.008 623.425 409.652C617.534 415.022 610.533 419.027 602.919 421.384C594.57 423.968 585.873 425.244 577.135 425.166H537.012ZM571.253 397.698H573.224C577.657 397.736 582.074 397.169 586.355 396.012C590.34 394.971 594.001 392.949 597.005 390.131C600.269 386.922 602.693 382.958 604.063 378.59C605.975 372.549 606.857 366.229 606.671 359.895C606.869 353.624 605.988 347.365 604.063 341.392C602.686 337.147 600.259 333.32 597.005 330.265C593.968 327.574 590.307 325.683 586.355 324.764C582.05 323.762 577.643 323.271 573.224 323.302H571.253V397.698Z" fill="white"/>
<path d="M121.321 220.77C145.71 178.972 180.626 144.294 222.592 120.194C264.558 96.0937 312.106 83.4115 360.499 83.4115C408.892 83.4115 456.441 96.0937 498.407 120.194C540.371 144.294 575.288 178.972 599.677 220.77H621.678C596.374 173.501 558.717 133.985 512.721 106.436C466.725 78.8865 414.115 64.3359 360.499 64.3359C306.884 64.3359 254.273 78.8865 208.277 106.436C162.282 133.985 124.624 173.501 99.3203 220.77H121.321Z" fill="white"/>
<path d="M599.677 500.23C575.288 542.028 540.371 576.705 498.407 600.805C456.441 624.905 408.892 637.588 360.499 637.588C312.106 637.588 264.558 624.905 222.592 600.805C180.626 576.705 145.71 542.028 121.321 500.23H99.3203C124.624 547.498 162.282 587.014 208.277 614.563C254.273 642.113 306.884 656.663 360.499 656.663C414.115 656.663 466.725 642.113 512.721 614.563C558.717 587.014 596.374 547.498 621.678 500.23H599.677Z" fill="white"/>
</svg>
