<svg width="1052" height="1052" viewBox="0 0 1052 1052" fill="none" xmlns="http://www.w3.org/2000/svg">
<g filter="url(#filter0_d_2466_37)">
<path d="M525.871 897.743C733.459 897.743 901.743 729.459 901.743 521.871C901.743 314.283 733.459 146 525.871 146C318.283 146 150 314.283 150 521.871C150 729.459 318.283 897.743 525.871 897.743Z" fill="#1048E5"/>
<path d="M314.715 509.573C345.941 491.839 348.925 466.48 352.969 443.773C355.389 430.083 356.284 424.746 356.284 424.746H411.741C411.741 424.746 409.122 439.298 406.669 453.022C402.625 475.729 403.355 492.27 373.057 509.573L329.732 534.169C298.506 551.871 295.522 577.263 291.478 599.969C289.058 613.66 288.163 618.997 288.163 618.997H232.706L237.778 590.721C241.789 568.014 241.092 551.473 271.39 534.169L314.715 509.573Z" fill="white"/>
<path d="M301.92 502.745H279.379C270.284 502.806 261.457 499.669 254.44 493.883C247.424 488.096 242.664 480.028 240.993 471.088L232.706 424.68H288.031L301.92 502.745Z" fill="white"/>
<path d="M342.427 541.031H365.068C374.154 540.969 382.973 544.103 389.983 549.883C396.993 555.663 401.75 563.724 403.421 572.655L411.741 619.063H356.416L342.427 541.031Z" fill="white"/>
<path d="M498.026 591.782C488.988 591.714 480.025 590.134 471.508 587.108C462.398 583.963 454.028 578.988 446.911 572.489L467.265 548.026C472.041 551.842 477.302 555.007 482.911 557.44C487.899 559.726 493.303 560.967 498.789 561.086C502.858 561.398 506.931 560.535 510.523 558.6C511.684 557.835 512.626 556.783 513.259 555.545C513.892 554.308 514.195 552.928 514.137 551.54C514.202 550.06 513.77 548.601 512.91 547.396C511.901 546.137 510.664 545.08 509.264 544.28C507.434 543.203 505.529 542.261 503.562 541.462C501.341 540.567 498.789 539.573 495.872 538.479L479.065 531.418C475.408 529.988 471.926 528.141 468.69 525.916C465.412 523.663 462.485 520.937 460.005 517.827C457.446 514.625 455.44 511.018 454.071 507.154C452.574 502.895 451.834 498.408 451.884 493.894C451.856 488.252 453.138 482.681 455.629 477.618C458.142 472.533 461.673 468.02 466.005 464.359C470.701 460.406 476.083 457.35 481.883 455.342C488.379 453.068 495.222 451.946 502.104 452.028C510.143 452.087 518.109 453.556 525.639 456.37C533.647 459.326 540.91 463.999 546.921 470.06L529.087 492.469C524.968 489.536 520.517 487.099 515.827 485.209C511.429 483.518 506.75 482.675 502.037 482.723C498.435 482.531 494.849 483.321 491.662 485.01C490.474 485.699 489.497 486.699 488.837 487.902C488.177 489.106 487.858 490.467 487.916 491.839C487.966 493.459 488.497 495.027 489.441 496.343C490.386 497.66 491.701 498.665 493.22 499.231C496.734 500.955 501.64 502.977 507.838 505.33L524.413 511.761C532.066 514.522 538.81 519.339 543.904 525.684C548.708 532.365 551.125 540.468 550.766 548.689C550.756 554.418 549.517 560.079 547.133 565.289C544.748 570.498 541.273 575.135 536.943 578.887C532.065 583.056 526.441 586.261 520.369 588.334C513.176 590.766 505.617 591.932 498.026 591.782Z" fill="white"/>
<path d="M636.124 591.782C627.111 591.836 618.151 590.402 609.605 587.539C601.395 584.852 593.886 580.375 587.62 574.429C581.354 568.484 576.487 561.221 573.373 553.164C566.234 533.676 566.234 512.288 573.373 492.8C576.676 484.475 581.651 476.916 587.992 470.591C594.139 464.581 601.448 459.888 609.472 456.801C617.671 453.611 626.397 451.992 635.195 452.028C644.091 451.802 652.922 453.605 661.018 457.298C667.727 460.452 673.865 464.698 679.183 469.862L660.521 492.668C657.334 489.872 653.816 487.479 650.046 485.541C645.908 483.726 641.438 482.789 636.919 482.789C632.4 482.789 627.931 483.726 623.792 485.541C619.904 487.371 616.438 489.99 613.616 493.231C610.611 496.825 608.357 500.984 606.986 505.463C605.307 510.824 604.501 516.42 604.599 522.037C604.599 534.766 607.417 544.512 613.118 551.274C618.82 558.037 627.704 561.451 639.869 561.451C641.788 561.458 643.7 561.247 645.571 560.821C647.23 560.497 648.815 559.868 650.245 558.965V539.904H630.356V510.866H681.802V575.174C676.154 580.248 669.612 584.227 662.51 586.909C654.114 590.229 645.152 591.884 636.124 591.782Z" fill="white"/>
<path d="M709.912 589.295V454.447H749.69C759.192 454.337 768.659 455.598 777.8 458.193C785.878 460.454 793.352 464.485 799.678 469.994C805.982 475.698 810.854 482.807 813.899 490.745C817.508 500.497 819.229 510.846 818.971 521.241C819.215 531.692 817.53 542.098 813.999 551.937C811.036 559.984 806.248 567.235 800.01 573.119C793.868 578.718 786.568 582.894 778.629 585.351C769.925 588.046 760.857 589.376 751.746 589.295H709.912ZM745.613 560.655H747.668C752.29 560.695 756.896 560.104 761.359 558.898C765.514 557.812 769.331 555.704 772.463 552.766C775.867 549.42 778.394 545.287 779.822 540.733C781.816 534.434 782.735 527.845 782.541 521.241C782.748 514.702 781.829 508.176 779.822 501.949C778.387 497.523 775.856 493.532 772.463 490.347C769.297 487.541 765.48 485.57 761.359 484.612C756.871 483.567 752.276 483.055 747.668 483.087H745.613V560.655Z" fill="white"/>
<path d="M276.495 376.183C301.924 332.603 338.329 296.447 382.084 271.319C425.839 246.191 475.415 232.968 525.871 232.968C576.328 232.968 625.904 246.191 669.659 271.319C713.413 296.447 749.819 332.603 775.248 376.183H798.187C771.804 326.899 732.541 285.698 684.584 256.974C636.627 228.25 581.773 213.079 525.871 213.079C469.97 213.079 415.116 228.25 367.159 256.974C319.202 285.698 279.939 326.899 253.556 376.183H276.495Z" fill="white"/>
<path d="M775.248 667.559C749.819 711.14 713.413 747.295 669.659 772.423C625.904 797.551 576.328 810.774 525.871 810.774C475.415 810.774 425.839 797.551 382.084 772.423C338.329 747.295 301.924 711.14 276.495 667.559H253.556C279.939 716.843 319.202 758.044 367.159 786.768C415.116 815.492 469.97 830.663 525.871 830.663C581.773 830.663 636.627 815.492 684.584 786.768C732.541 758.044 771.804 716.843 798.187 667.559H775.248Z" fill="white"/>
</g>
<defs>
<filter id="filter0_d_2466_37" x="0" y="0" width="1051.74" height="1051.74" filterUnits="userSpaceOnUse" color-interpolation-filters="sRGB">
<feFlood flood-opacity="0" result="BackgroundImageFix"/>
<feColorMatrix in="SourceAlpha" type="matrix" values="0 0 0 0 0 0 0 0 0 0 0 0 0 0 0 0 0 0 127 0" result="hardAlpha"/>
<feOffset dy="4"/>
<feGaussianBlur stdDeviation="75"/>
<feComposite in2="hardAlpha" operator="out"/>
<feColorMatrix type="matrix" values="0 0 0 0 0 0 0 0 0 0 0 0 0 0 0 0 0 0 0.25 0"/>
<feBlend mode="normal" in2="BackgroundImageFix" result="effect1_dropShadow_2466_37"/>
<feBlend mode="normal" in="SourceGraphic" in2="effect1_dropShadow_2466_37" result="shape"/>
</filter>
</defs>
</svg>
